<svg version="1.1" id="Layer_1" xmlns="http://www.w3.org/2000/svg" xmlns:xlink="http://www.w3.org/1999/xlink" x="0px" y="0px"
	 width="100%" viewBox="0 0 1080 1080" enable-background="new 0 0 1080 1080" xml:space="preserve">
<path opacity="0" stroke="none"
	d="
M610.996643,572.211609
	C627.581177,548.696838 644.167664,525.183350 660.749878,501.666901
	C677.434082,478.006012 694.167603,454.379730 710.781311,430.669525
	C729.238953,404.327667 746.950623,377.433533 766.192810,351.680725
	C780.192139,332.944794 782.348572,312.395050 778.714050,290.881409
	C775.997131,274.798981 767.088745,261.300629 754.309143,250.947006
	C742.262390,241.187180 728.463440,235.938889 712.665771,235.952057
	C603.518555,236.043106 494.370972,235.887375 385.224030,236.096756
	C363.890686,236.137680 342.521942,234.636307 321.202850,237.864639
	C305.203400,240.287415 292.801788,247.393433 285.074982,261.736053
	C278.469818,273.996582 277.614624,287.674103 277.397461,301.096008
	C277.210449,312.652893 278.106293,324.419586 280.220398,335.777618
	C283.614349,354.012085 296.698273,368.540131 316.037323,372.767670
	C316.872742,374.180420 317.605377,375.667053 318.559692,376.994293
	C326.666656,388.269623 334.935822,399.430389 342.914337,410.795410
	C350.650848,421.815613 357.943634,433.148163 365.720367,444.138977
	C373.910828,455.714417 382.530243,466.985443 390.800293,478.505676
	C397.704651,488.123352 404.376312,497.908142 411.148651,507.620575
	C417.186493,516.279663 423.106293,525.024048 429.291504,533.576538
	C434.780640,541.166504 440.562836,548.544495 446.163513,556.746582
	C434.162384,573.626404 422.119049,590.476379 410.170685,607.393494
	C395.153229,628.656006 380.168732,649.942200 365.251068,671.274841
	C344.499878,700.949585 323.831696,730.682434 303.110809,760.378479
	C297.098541,768.994934 290.468506,777.238525 285.120758,786.246216
	C277.958069,798.310730 276.738129,811.663513 277.807251,825.634399
	C278.923035,840.214111 283.529358,852.889038 292.634918,864.335938
	C305.494904,880.502441 322.201294,889.750916 342.527710,889.814575
	C462.672272,890.190796 582.818787,890.074036 702.964294,889.911316
	C718.965576,889.889648 735.003723,889.146362 750.954773,887.864868
	C766.767395,886.594543 778.524353,878.159058 785.908875,864.204712
	C793.473389,849.910339 793.004150,833.939758 793.730347,818.464783
	C794.153076,809.457092 792.495972,800.237915 790.877747,791.275818
	C788.624817,778.798950 782.854187,768.185791 771.882324,760.973999
	C761.287659,754.010193 749.075989,753.388123 736.720825,751.345215
	C734.122070,747.775635 731.472046,744.242004 728.934753,740.629272
	C722.619019,731.636780 716.416138,722.564453 710.053955,713.605042
	C702.107300,702.414124 693.951538,691.370972 686.061462,680.140747
	C678.197571,668.947571 670.695679,657.498840 662.770325,646.350403
	C653.766174,633.684570 644.323364,621.330322 635.340454,608.649841
	C626.995972,596.870605 619.005920,584.840271 610.996643,572.211609
z"/>
<path fill="#F9FFA2" opacity="1.000000" stroke="none"
	d="
M737.067749,751.928772
	C749.075989,753.388123 761.287659,754.010193 771.882324,760.973999
	C782.854187,768.185791 788.624817,778.798950 790.877747,791.275818
	C792.495972,800.237915 794.153076,809.457092 793.730347,818.464783
	C793.004150,833.939758 793.473389,849.910339 785.908875,864.204712
	C778.524353,878.159058 766.767395,886.594543 750.954773,887.864868
	C735.003723,889.146362 718.965576,889.889648 702.964294,889.911316
	C582.818787,890.074036 462.672272,890.190796 342.527710,889.814575
	C322.201294,889.750916 305.494904,880.502441 292.634918,864.335938
	C283.529358,852.889038 278.923035,840.214111 277.807251,825.634399
	C276.738129,811.663513 277.958069,798.310730 285.120758,786.246216
	C290.468506,777.238525 297.098541,768.994934 303.110809,760.378479
	C323.831696,730.682434 344.499878,700.949585 365.251068,671.274841
	C380.168732,649.942200 395.153229,628.656006 410.170685,607.393494
	C422.119049,590.476379 434.162384,573.626404 446.531555,556.456421
	C447.740906,555.400513 448.758728,554.759094 449.398163,553.851318
	C473.037872,520.288147 496.656372,486.709869 520.202820,453.081238
	C521.169495,451.700653 521.414612,449.814880 522.341248,448.064545
	C539.687988,423.746796 556.689392,399.529022 573.842407,375.095245
	C539.605042,375.095245 505.853333,375.095245 471.628479,375.048889
	C447.331635,374.964111 423.507935,374.910645 399.684204,374.891083
	C371.730927,374.868103 343.754730,375.556519 315.918518,372.069763
	C296.698273,368.540131 283.614349,354.012085 280.220398,335.777618
	C278.106293,324.419586 277.210449,312.652893 277.397461,301.096008
	C277.614624,287.674103 278.469818,273.996582 285.074982,261.736053
	C292.801788,247.393433 305.203400,240.287415 321.202850,237.864639
	C342.521942,234.636307 363.890686,236.137680 385.224030,236.096756
	C494.370972,235.887375 603.518555,236.043106 712.665771,235.952057
	C728.463440,235.938889 742.262390,241.187180 754.309143,250.947006
	C767.088745,261.300629 775.997131,274.798981 778.714050,290.881409
	C782.348572,312.395050 780.192139,332.944794 766.192810,351.680725
	C746.950623,377.433533 729.238953,404.327667 710.781311,430.669525
	C694.167603,454.379730 677.434082,478.006012 660.749878,501.666901
	C644.167664,525.183350 627.581177,548.696838 610.585022,572.615479
	C608.834412,574.417908 607.291565,575.672363 606.186584,577.236145
	C585.952820,605.870056 565.729675,634.511719 545.614319,663.228821
	C541.548584,669.033142 537.932861,675.152710 533.952881,681.437622
	C532.520447,683.595215 531.266174,685.457397 529.965576,687.286499
	C521.534851,699.143127 513.043396,710.956970 504.672729,722.855774
	C498.030762,732.297241 491.532593,741.839844 484.597137,751.878052
	C517.802063,751.878052 550.351135,751.878052 583.373962,751.914185
	C629.437500,751.966858 675.027344,751.986023 720.617188,751.996582
	C726.100708,751.997864 731.584229,751.952515 737.067749,751.928772
z"/>
<path fill="#979A6F" opacity="1.000000" stroke="none"
	d="
M315.977905,372.418701
	C343.754730,375.556519 371.730927,374.868103 399.684204,374.891083
	C423.507935,374.910645 447.331635,374.964111 471.587524,375.400085
	C473.092773,377.400085 474.131531,379.026703 475.244110,380.601227
	C488.250214,399.007965 501.306519,417.379395 514.250488,435.829681
	C517.035156,439.798950 519.424438,444.045624 521.995911,448.164490
	C521.414612,449.814880 521.169495,451.700653 520.202820,453.081238
	C496.656372,486.709869 473.037872,520.288147 449.398163,553.851318
	C448.758728,554.759094 447.740906,555.400513 446.557648,556.091125
	C440.562836,548.544495 434.780640,541.166504 429.291504,533.576538
	C423.106293,525.024048 417.186493,516.279663 411.148651,507.620575
	C404.376312,497.908142 397.704651,488.123352 390.800293,478.505676
	C382.530243,466.985443 373.910828,455.714417 365.720367,444.138977
	C357.943634,433.148163 350.650848,421.815613 342.914337,410.795410
	C334.935822,399.430389 326.666656,388.269623 318.559692,376.994293
	C317.605377,375.667053 316.872742,374.180420 315.977905,372.418701
z"/>
<path fill="#979A6F" opacity="1.000000" stroke="none"
	d="
M736.894287,751.636963
	C731.584229,751.952515 726.100708,751.997864 720.617188,751.996582
	C675.027344,751.986023 629.437500,751.966858 583.400391,751.559692
	C576.760437,742.065247 570.664124,732.893982 564.352905,723.873047
	C554.347351,709.571533 544.198120,695.370483 534.109680,681.126953
	C537.932861,675.152710 541.548584,669.033142 545.614319,663.228821
	C565.729675,634.511719 585.952820,605.870056 606.186584,577.236145
	C607.291565,575.672363 608.834412,574.417908 610.516602,572.969971
	C619.005920,584.840271 626.995972,596.870605 635.340454,608.649841
	C644.323364,621.330322 653.766174,633.684570 662.770325,646.350403
	C670.695679,657.498840 678.197571,668.947571 686.061462,680.140747
	C693.951538,691.370972 702.107300,702.414124 710.053955,713.605042
	C716.416138,722.564453 722.619019,731.636780 728.934753,740.629272
	C731.472046,744.242004 734.122070,747.775635 736.894287,751.636963
z"/>
<path opacity="0" stroke="none"
	d="
M522.341248,448.064545
	C519.424438,444.045624 517.035156,439.798950 514.250488,435.829681
	C501.306519,417.379395 488.250214,399.007965 475.244110,380.601227
	C474.131531,379.026703 473.092773,377.400085 472.060669,375.446442
	C505.853333,375.095245 539.605042,375.095245 573.842407,375.095245
	C556.689392,399.529022 539.687988,423.746796 522.341248,448.064545
z"/>
<path opacity="0" stroke="none"
	d="
M533.952881,681.437622
	C544.198120,695.370483 554.347351,709.571533 564.352905,723.873047
	C570.664124,732.893982 576.760437,742.065247 582.926697,751.523560
	C550.351135,751.878052 517.802063,751.878052 484.597137,751.878052
	C491.532593,741.839844 498.030762,732.297241 504.672729,722.855774
	C513.043396,710.956970 521.534851,699.143127 529.965576,687.286499
	C531.266174,685.457397 532.520447,683.595215 533.952881,681.437622
z"/>
</svg>
